<?xml version="1.0" encoding="UTF-8" standalone="no"?><!DOCTYPE svg PUBLIC "-//W3C//DTD SVG 1.1//EN" "http://www.w3.org/Graphics/SVG/1.1/DTD/svg11.dtd"><svg width="25" height="32" viewBox="0 0 337 377" version="1.1" xmlns="http://www.w3.org/2000/svg" xmlns:xlink="http://www.w3.org/1999/xlink" xml:space="preserve" style="fill-rule:evenodd;clip-rule:evenodd;stroke-linecap:round;stroke-linejoin:round;stroke-miterlimit:1.5;"><g><path d="M42.651,122.87c0,0 68.197,100.268 -31.657,179.195c-5.33,6.548 -5.591,47.414 11.397,50.563c42.849,7.942 136.963,26.434 245.7,-2.91l0,-21.495c135.954,-91.39 45.567,-282.567 -88.023,-287.659" style="fill:none;stroke:#000;stroke-width:1px;"/><path d="M13.929,346.502l9.556,18.097c92.42,16.51 167.498,15.689 244.952,-3.263l0,-10.98c-71.278,20.617 -158.042,20.549 -252.473,0" style="fill:#777;stroke:#000;stroke-width:1px;"/><path d="M11.217,291.616c0.579,-5.655 3.872,-7.19 8.374,-6.889l-8.374,6.889Z" style="fill:#9a9a9a;stroke:#000;stroke-width:1px;"/><path d="M37.999,315.449c2.365,0.132 4.176,2.179 4.043,4.569c-0.133,2.39 -2.162,4.223 -4.526,4.091c-2.365,-0.132 -4.176,-2.18 -4.043,-4.57c0.133,-2.389 2.162,-4.222 4.526,-4.09Z" style="fill:none;stroke:#000;stroke-width:1px;"/><path d="M189.441,217.755c3.666,-1.115 7.581,-1.616 11.621,-1.391c18.658,1.042 32.951,17.196 31.899,36.051c-1.053,18.855 -17.056,33.318 -35.714,32.276c-18.658,-1.042 -32.951,-17.196 -31.898,-36.051c0.467,-8.378 3.887,-15.889 9.18,-21.558" style="fill:#777;stroke:#000;stroke-width:1px;"/><path d="M193.717,210.759c2.556,-0.227 5.184,-0.235 7.663,-0.096c7.718,0.431 14.796,3.078 20.663,7.295" style="fill:none;stroke:#000;stroke-width:1px;"/><path d="M238.602,252.73c-0.921,16.501 -11.655,30.119 -26.149,35.384" style="fill:none;stroke:#000;stroke-width:1px;"/><path d="M196.929,290.392c-21.772,-1.215 -38.45,-20.065 -37.222,-42.067" style="fill:none;stroke:#000;stroke-width:1px;"/><path d="M213.131,320.883c1.182,0.066 2.088,1.09 2.021,2.285c-0.066,1.195 -1.081,2.111 -2.263,2.045c-1.182,-0.066 -2.088,-1.09 -2.021,-2.284c0.066,-1.195 1.08,-2.112 2.263,-2.046Z" style="fill:none;stroke:#000;stroke-width:1px;"/><path d="M231.351,319.729c1.183,0.066 2.088,1.09 2.022,2.284c-0.067,1.195 -1.081,2.112 -2.263,2.046c-1.183,-0.066 -2.088,-1.09 -2.022,-2.285c0.067,-1.195 1.081,-2.111 2.263,-2.045Z" style="fill:none;stroke:#000;stroke-width:1px;"/><path d="M118.723,96.861c-1.541,2.842 1.005,5.335 2.133,5.97c1.127,0.636 4.632,-2.156 4.632,-2.156l61.698,158.611c1.897,4.753 9.627,4.617 14.46,1.458c1.247,-0.815 2.301,-1.831 3.013,-3.016c0.602,-1.004 0.959,-2.128 0.979,-3.355c0.018,-1.099 -0.234,-2.28 -0.822,-3.529l-73.078,-155.136c0,0 3.928,-2.642 4.051,-4.831c0.122,-2.19 -0.638,-3.768 -3.685,-1.721c-1.785,2.721 -5.177,5.483 -13.325,7.7" style="fill:#777;stroke:#000;stroke-width:1px;"/><path d="M0.5,117.485c50.795,-45.897 121.12,-99.546 184.302,-116.985" style="fill:none;stroke:#000;stroke-width:1px;"/><path d="M9.816,336.516c37.485,7.172 70.984,12.002 102.609,14.453" style="fill:none;stroke:#000;stroke-width:1px;"/><path d="M206.837,350.904c21.328,-1.782 39.204,-4.328 61.6,-8.563" style="fill:none;stroke:#000;stroke-width:1px;"/><path d="M268.371,328.418c-16.861,3.75 -33.631,6.779 -50.288,8.925" style="fill:none;stroke:#000;stroke-width:1px;"/><path d="M150.159,340.752c-20.506,-0.748 -40.788,-3.251 -60.805,-7.84" style="fill:none;stroke:#000;stroke-width:1px;"/><path d="M33.822,124.019c44.89,75.539 17.088,131.954 -21.602,168.18c-3.75,-2.708 2.575,-9.558 7.699,-7.645" style="fill:none;stroke:#000;stroke-width:1px;"/><path d="M10.607,292.347c61.859,-50.029 52.526,-115.42 23.037,-168.677l9.209,-0.841c40.911,76.168 21.454,135.808 -32.173,179.409c-0.35,-3.644 -0.751,-12.125 1.44,-14.822" style="fill:#919191;stroke:#000;stroke-width:1px;"/><path d="M0.506,117.613l5.494,6.087c46.876,16.195 198.243,-41.619 182.038,-120.194l-3.236,-3.006c19.021,87.413 -158.91,143.379 -184.296,117.113Z" style="fill:#888;stroke:#000;stroke-width:1px;"/></g></svg>