<svg xmlns="http://www.w3.org/2000/svg" xmlns:xlink="http://www.w3.org/1999/xlink" width="45" height="45" viewBox="0 0 100 100"><rect width="100%" height="100%" fill="#1A1A1A" rx="5" ry="5"></rect><g transform="translate(50 50) scale(0.69 0.69) rotate(0) translate(-50 -50)" style="fill:#FFFFFF"><svg fill="#FFFFFF" xmlns="http://www.w3.org/2000/svg" data-name="Layer 1" viewBox="0 0 64 64" x="0px" y="0px"><title>space-explorer-observation-travel-astronaut</title><path d="M37,19A12,12,0,1,0,25,31,12.013,12.013,0,0,0,37,19ZM25,9a10.009,10.009,0,0,1,9.838,8.259C32.4,16.045,27.744,14,24,14c-3.436,0-6.792,1.705-8.786,2.949A10.015,10.015,0,0,1,25,9Zm0,20a10,10,0,0,1-9.976-9.517C16.251,18.6,20.168,16,24,16c3.919,0,9.294,2.687,10.971,3.578A10,10,0,0,1,25,29Z"></path><path d="M32,37H26a3,3,0,0,0-3,3v3a3,3,0,0,0,3,3h6a3,3,0,0,0,3-3V40A3,3,0,0,0,32,37Zm1,6a1,1,0,0,1-1,1H26a1,1,0,0,1-1-1V40a1,1,0,0,1,1-1h6a1,1,0,0,1,1,1Z"></path><path d="M60,10A11.01,11.01,0,0,1,50,20.949V18.941A9.01,9.01,0,0,0,58,10V2H56v8a7.006,7.006,0,0,1-6,6.92V15a3,3,0,0,0-3-3H44.41C41.7,6.485,35.7,3,28,3,17.4,3,10,9.58,10,19a15.028,15.028,0,0,0,6.151,12.433L7.457,33.209a4.793,4.793,0,0,0-3.939,4.756c.021,2.99,2.017,4.7,5.533,4.7h0l9.63-.539A17.1,17.1,0,0,0,20.1,45.578l2.966,5.438a16.419,16.419,0,0,0,2.8,3.742l5.193,5.192a7.012,7.012,0,0,0,8.422,1.128l2.615-1.5a6.974,6.974,0,0,0,5.955.359l5.485-2.194A3.324,3.324,0,0,0,60,56.675V50a2,2,0,0,0-2-2H54v.025a.964.964,0,0,0-.24,0l-5.452,1.348-6.956-6.958a4.6,4.6,0,0,1-.865-1.2c-.036-.072-.063-.148-.095-.222H47a3,3,0,0,0,3-3V35.185l4.061-.962a4.8,4.8,0,0,0-1.723-9.446L50,25.2V22.949A13.008,13.008,0,0,0,62,10V2H60ZM12,19c0-8.243,6.579-14,16-14s16,5.757,16,14S37.421,33,28,33,12,27.243,12,19ZM40,35.5V31.313a15.137,15.137,0,0,0,2.817-2.767l1.525-.278L41.261,35.2ZM9,40.671c-3.1,0-3.475-1.552-3.482-2.719a2.8,2.8,0,0,1,2.319-2.779l4.656-.951,3.041,6.083Zm8.71-.488-3.188-6.375L18,33.1v4.267a17.119,17.119,0,0,0,.237,2.789ZM58,56.675a1.325,1.325,0,0,1-2.581.42L55,55.837V50h3ZM49.293,53.19l1.414-1.414-.747-.747L53,50.277v5.529l-5.7,2.279a5,5,0,0,1-5.394-1.106l-7.2-7.2L33.293,51.19l7.074,7.074-1.885,1.077a5.009,5.009,0,0,1-6.015-.8l-5.193-5.192a14.481,14.481,0,0,1-2.458-3.286L21.851,44.62A15.184,15.184,0,0,1,20,37.364V33.537A21.611,21.611,0,0,0,28,35a20.668,20.668,0,0,0,10-2.4v6.555a6.607,6.607,0,0,0,1.938,4.676ZM48,38a1,1,0,0,1-1,1H40V37.554l8-1.9Zm4.7-11.255a2.8,2.8,0,1,1,.953,5.521L43.708,34.62l3.016-6.786Zm-8.412-.5A15.675,15.675,0,0,0,46,19a16.256,16.256,0,0,0-.763-5H47a1,1,0,0,1,1,1V25.568Z"></path><rect x="39" y="17" width="2" height="5"></rect><rect x="4" y="2" width="2" height="2"></rect><rect x="2" y="4" width="2" height="2"></rect><rect x="6" y="4" width="2" height="2"></rect><rect x="4" y="6" width="2" height="2"></rect><rect x="2" y="21" width="2" height="2"></rect><rect x="58" y="37" width="2" height="2"></rect><rect x="56" y="39" width="2" height="2"></rect><rect x="60" y="39" width="2" height="2"></rect><rect x="58" y="41" width="2" height="2"></rect><rect x="14" y="49" width="2" height="2"></rect><rect x="12" y="51" width="2" height="2"></rect><rect x="16" y="51" width="2" height="2"></rect><rect x="14" y="53" width="2" height="2"></rect><rect x="6" y="57" width="2" height="2"></rect><rect x="21" y="60" width="2" height="2"></rect><rect x="2" y="44" width="2" height="2"></rect></svg></g></svg>