<svg xmlns="http://www.w3.org/2000/svg" xmlns:xlink="http://www.w3.org/1999/xlink" width="190" height="200" viewBox="-28 0 50 100"><rect fill="#FFFFFF" rx="5" ry="5"></rect><g transform="translate(50 50) scale(2 2) rotate(0) translate(-50 -50)" style="fill:#1A1A1A"><svg fill="#1A1A1A" xmlns="http://www.w3.org/2000/svg" xmlns:xlink="http://www.w3.org/1999/xlink" version="1.1" x="0px" y="0px" viewBox="0 0 100 100" enable-background="new 0 0 100 100" xml:space="preserve"><path fill-rule="evenodd" clip-rule="evenodd" d="M71.75,9.2c0,0.4-0.116,0.733-0.35,1L71.3,10.3c-0.3,0.267-0.666,0.4-1.1,0.4  c-0.333,0-0.667-0.133-1-0.4L69.1,10.2c-0.267-0.267-0.399-0.6-0.399-1c0-0.5,0.133-0.867,0.399-1.1c0.334-0.333,0.7-0.5,1.101-0.5  c0.434,0,0.8,0.167,1.1,0.5C71.6,8.3,71.75,8.667,71.75,9.2z M70.8,9.2c0-0.233-0.033-0.383-0.1-0.45c-0.134-0.1-0.3-0.15-0.5-0.15  l-0.4,0.15c-0.066,0.066-0.1,0.216-0.1,0.45c0,0.167,0.033,0.284,0.1,0.35h0.05C69.95,9.65,70.066,9.7,70.2,9.7  c0.2,0,0.366-0.05,0.5-0.15C70.767,9.483,70.8,9.367,70.8,9.2z M72.55,23.35c0.867,0.067,1.634,0.434,2.3,1.1  c0.801,0.867,1.2,1.85,1.2,2.95v4.3c0,1.233-0.399,2.217-1.2,2.95c-0.566,0.633-1.267,1.017-2.1,1.15l-0.6,0.05  c-1.033,4.5-3.301,8.467-6.801,11.9l-0.699,0.7C64.983,49.383,65.1,50.3,65,51.2v0.2l0.85,0.55c1.4,0.867,2.467,1.3,3.2,1.3  c1.733,0,3.134-0.467,4.2-1.4l0.6-0.5C73.55,50.216,73.4,49.1,73.4,48c0-1.833,0.483-3.167,1.449-4  c0.667-0.567,1.518-0.85,2.551-0.85c0.666,0,1.199,0.267,1.6,0.8c1.066-1.133,2.184-1.7,3.35-1.7c1.834,0,3.45,0.65,4.851,1.95  c1.167,1.233,1.75,2.534,1.75,3.9c0,2.134-0.967,3.95-2.9,5.45c-1.333,1-2.916,1.667-4.75,2l0.05,0.25c0,2.4-1.216,4.533-3.649,6.4  c-2.333,1.633-4.667,2.45-7,2.45c-0.967,0-2-0.167-3.101-0.5c-1.1-0.333-1.982-0.717-2.649-1.15L64.1,62.3  c0.934,8.533,1.2,16.767,0.801,24.7l0.05,6.5H79.5c0.5,0,0.75,0.25,0.75,0.75S80,95,79.5,95H24.05c-0.2,0-0.366-0.067-0.5-0.2  c-0.166-0.167-0.25-0.35-0.25-0.55c0-0.5,0.25-0.75,0.75-0.75h6.55v-6L30.55,87l-0.1-4.9l-0.05,0.05c-2.2,0-4.051-0.783-5.551-2.35  c-1.267-1.533-1.899-3.233-1.899-5.1c0-0.933,0.149-2.033,0.45-3.3c0.533-2.667,1.6-5.85,3.199-9.55  c1.733-4.3,3.268-7.533,4.601-9.7l-0.75-0.65c-0.167-0.167-0.25-0.35-0.25-0.55c-0.066-0.933,0.083-1.8,0.45-2.6l-0.601-0.6  c-3.433-3.4-5.649-7.217-6.649-11.45L23.3,35.85c-1.033-0.033-1.916-0.433-2.649-1.2c-0.767-0.733-1.15-1.717-1.15-2.95v-4.3  c0-1.133,0.367-2.117,1.1-2.95c0.768-0.733,1.75-1.133,2.95-1.2c1.101-4.034,3.267-7.667,6.5-10.9C34.95,7.45,40.833,5,47.7,5  c6.934,0,12.816,2.45,17.649,7.35c3.268,3.233,5.434,6.884,6.5,10.95L72.55,23.35z M72.2,24.8c0.366,1.767,0.55,3.533,0.55,5.3  c0,1.267-0.116,2.684-0.35,4.25h0.1c0.467-0.1,0.9-0.35,1.3-0.75c0.5-0.5,0.75-1.133,0.75-1.9v-4.3c0-0.7-0.25-1.333-0.75-1.9  c-0.399-0.4-0.883-0.633-1.45-0.7H72.2z M86.45,15.55l0.3,0.15c0.134,0.133,0.2,0.25,0.2,0.35v1.35h1.25  c0.133,0,0.25,0.05,0.35,0.15c0.101,0.1,0.15,0.217,0.15,0.35c0,0.167-0.05,0.267-0.15,0.3c-0.133,0.133-0.25,0.2-0.35,0.2h-1.25  v1.25c0,0.1-0.066,0.217-0.2,0.35c-0.033,0.1-0.133,0.15-0.3,0.15S86.167,20.1,86.1,20c-0.1-0.067-0.149-0.184-0.149-0.35V18.4H84.6  c-0.1,0-0.216-0.067-0.35-0.2l-0.15-0.3c0-0.033,0.051-0.15,0.15-0.35c0.1-0.1,0.217-0.15,0.35-0.15h1.351v-1.35  c0-0.167,0.05-0.283,0.149-0.35C86.3,15.6,86.417,15.55,86.45,15.55z M50.45,24.3c-3.667-0.167-7.267-0.15-10.8,0.05L39.6,24.4  c-0.166,0-0.333-0.067-0.5-0.2c-0.133-0.167-0.199-0.35-0.199-0.55c-0.033-0.2,0.017-0.367,0.149-0.5  c0.134-0.167,0.317-0.25,0.55-0.25c3.601-0.233,7.233-0.25,10.9-0.05c0.233,0,0.417,0.083,0.55,0.25c0.134,0.134,0.184,0.3,0.15,0.5  c0,0.233-0.066,0.417-0.2,0.55C50.833,24.283,50.65,24.333,50.45,24.3z M59.25,47.8c-3.4,2.434-7.383,3.65-11.95,3.65  c-4.433,0-8.45-1.25-12.05-3.75c-1.167-0.633-2.184-0.35-3.05,0.85c-0.3,0.567-0.483,1.233-0.55,2l1,0.85  c4.3,3.2,9.35,4.8,15.149,4.8c6,0,11.2-1.75,15.601-5.25l0.149-0.15c0-0.733-0.149-1.433-0.45-2.1  C61.967,47.367,60.684,47.066,59.25,47.8z M64.05,34.05V25.5c0-2.9-1.467-4.6-4.399-5.1c-4.301-0.5-8.517-0.75-12.65-0.75  c-4.133,0-8.083,0.25-11.85,0.75c-2.934,0.5-4.4,2.2-4.4,5.1v8.55c0,2.9,1.45,4.55,4.35,4.95c8.2,1,16.351,1,24.45,0  C62.55,38.6,64.05,36.95,64.05,34.05z M59.7,40.45c-3.934,0.534-8.05,0.8-12.351,0.8c-4.267,0-8.399-0.267-12.399-0.8  c-3.8-0.466-5.7-2.6-5.7-6.4V25.5c0-3.8,1.884-5.983,5.65-6.55c7.767-1.066,16.083-1.066,24.949,0c3.801,0.567,5.7,2.75,5.7,6.55  v8.55C65.55,37.85,63.6,39.983,59.7,40.45z M63.75,47.2l0.55-0.5c3.467-3.367,5.65-7.267,6.55-11.7c0.268-1.534,0.4-3.167,0.4-4.9  c0-1.966-0.217-3.917-0.65-5.85c-0.933-4.034-3.033-7.65-6.3-10.85c-4.533-4.6-10.066-6.9-16.6-6.9c-6.5,0-12.033,2.3-16.601,6.9  c-3.232,3.2-5.316,6.816-6.25,10.85v0.05l-0.199,0.85c-0.301,1.566-0.45,3.217-0.45,4.95c0,1.733,0.149,3.35,0.45,4.85V35l0.199,1  c0.967,3.966,3.051,7.533,6.25,10.7l0.4,0.4c0.767-0.833,1.617-1.25,2.55-1.25c0.601,0,1.267,0.184,2,0.55  c3.334,2.367,7.084,3.55,11.25,3.55c4.267,0,8-1.15,11.2-3.45C60.467,45.533,62.217,45.767,63.75,47.2z M89.4,33.6  c-0.367,0-0.7,0.15-1,0.45c-0.233,0.233-0.351,0.533-0.351,0.9c0,0.4,0.117,0.733,0.351,1c0.333,0.267,0.666,0.4,1,0.4  c0.333,0,0.633-0.133,0.899-0.4s0.4-0.6,0.4-1c0-0.367-0.134-0.667-0.4-0.9C90.066,33.75,89.767,33.6,89.4,33.6z M87.1,34.95  c0-0.633,0.2-1.167,0.601-1.6c0.5-0.5,1.066-0.75,1.7-0.75c0.6,0,1.149,0.25,1.649,0.75c0.434,0.434,0.65,0.967,0.65,1.6  c0,0.667-0.217,1.2-0.65,1.6c-0.5,0.5-1.05,0.75-1.649,0.75c-0.634,0-1.2-0.25-1.7-0.75C87.3,36.15,87.1,35.617,87.1,34.95z   M78.15,45.5c-0.167-0.567-0.417-0.85-0.75-0.85c-1.667,0-2.5,1.117-2.5,3.35c0,0.8,0.1,1.617,0.3,2.45  c0.5-0.3,0.983-0.45,1.45-0.45c1.666,0,2.916,0.716,3.75,2.15c0.366,0.566,0.616,1.217,0.75,1.95c1.533-0.3,2.85-0.866,3.949-1.7  c1.601-1.2,2.4-2.633,2.4-4.3c0-0.966-0.45-1.917-1.35-2.85c-1.101-1-2.367-1.5-3.801-1.5c-0.8,0-1.6,0.45-2.399,1.35l-0.3,0.4  l0.05,0.45c0.133,0.667,0.149,1.434,0.05,2.3c0,0.2-0.083,0.367-0.25,0.5s-0.333,0.183-0.5,0.15c-0.2,0-0.366-0.083-0.5-0.25  c-0.133-0.167-0.184-0.35-0.15-0.55c0.034-0.466,0.018-1.116-0.05-1.95l-0.149-0.6V45.5z M90.55,66.4  c-0.066,0.066-0.183,0.1-0.35,0.1h-1.3v1.4c0,0.1-0.067,0.217-0.2,0.35c-0.033,0.1-0.134,0.15-0.3,0.15  c-0.134,0-0.25-0.05-0.351-0.15c-0.1-0.067-0.149-0.184-0.149-0.35v-1.4H86.6c-0.166,0-0.283-0.034-0.35-0.1  c-0.1-0.167-0.15-0.3-0.15-0.4l0.15-0.35l0.35-0.15H87.9v-1.25c0-0.167,0.05-0.284,0.149-0.35c0.067-0.1,0.184-0.15,0.351-0.15  c0.166,0,0.267,0.05,0.3,0.15c0.133,0.133,0.2,0.25,0.2,0.35v1.25h1.3c0.033,0,0.149,0.05,0.35,0.15c0.101,0.1,0.15,0.217,0.15,0.35  S90.65,66.267,90.55,66.4z M79.15,52.9c-0.601-0.934-1.434-1.4-2.5-1.4c-0.334,0-0.817,0.233-1.45,0.7l-0.05,0.05L74.25,53  c-1.366,1.133-3.1,1.7-5.2,1.7c-1.033,0-2.366-0.5-4-1.5L63.9,52.45C59.367,55.95,54,57.7,47.8,57.7  c-5.833,0-10.967-1.55-15.399-4.65c-1.334,2.167-2.817,5.283-4.45,9.35c-1.434,3.5-2.417,6.383-2.95,8.65l5.6,1.7  c0.233-4.8,0.717-9.75,1.45-14.85c0.067-0.467,0.351-0.667,0.851-0.6c0.467,0.067,0.666,0.35,0.6,0.85  c-0.733,5.4-1.217,10.617-1.45,15.65L31.9,81.3c0,1.6,0.05,3.25,0.149,4.95h10.9V83.4H41.2c-0.5,0-0.75-0.25-0.75-0.75  s0.25-0.75,0.75-0.75h12.85c0.167,0,0.334,0.083,0.5,0.25c0.134,0.133,0.2,0.3,0.2,0.5c0,0.5-0.233,0.75-0.7,0.75h-1.5v2.85h10.9  c0.366-8.5,0.033-17.05-1-25.65l-0.4-2.95c-0.066-0.467,0.134-0.733,0.601-0.8c0.467-0.066,0.733,0.15,0.8,0.65l0.399,2.65  L65.9,61.8c0.566,0.367,1.283,0.684,2.149,0.95c1,0.3,1.884,0.45,2.65,0.45c2.1,0,4.116-0.75,6.05-2.25  c2.066-1.533,3.1-3.25,3.1-5.15L79.8,55C79.7,54.3,79.483,53.6,79.15,52.9z M72.65,73.85c0.433,0,0.8,0.167,1.1,0.5  c0.333,0.267,0.5,0.634,0.5,1.1c0,0.4-0.15,0.767-0.45,1.1l-0.05,0.05c-0.267,0.233-0.633,0.35-1.1,0.35  c-0.4,0-0.767-0.117-1.101-0.35l-0.05-0.05c-0.3-0.433-0.45-0.8-0.45-1.1c0-0.433,0.15-0.8,0.45-1.1  C71.833,74.017,72.217,73.85,72.65,73.85z M55.9,66.15c0.967,1,1.449,2.283,1.449,3.85v2.6c0,1.6-0.566,2.967-1.699,4.1  c-1.134,1.167-2.467,1.75-4,1.75H44.1c-1.566,0-2.933-0.583-4.1-1.75c-1.167-1.167-1.75-2.533-1.75-4.1V70  c0-1.434,0.467-2.7,1.4-3.8l0.399-0.4c1.101-1.1,2.45-1.65,4.05-1.65h7.551c1.566,0,2.899,0.566,4,1.7L55.9,66.15z M53.7,67.95  l0.85-1.1c-0.8-0.8-1.767-1.2-2.899-1.2H44.1c-1.199,0-2.216,0.417-3.05,1.25v0.05c1.967,2.7,3.934,4.217,5.9,4.55  c1.633,0.2,3.233-0.333,4.8-1.6c0.267-0.233,0.5-0.217,0.7,0.05c0.233,0.267,0.217,0.5-0.05,0.7c-1.634,1.233-3.217,1.85-4.75,1.85  H46.8c-2.166-0.367-4.3-1.95-6.399-4.75c-0.434,0.667-0.65,1.417-0.65,2.25v2.6c0,1.167,0.434,2.184,1.3,3.05  c0.867,0.867,1.884,1.3,3.05,1.3h7.551c1.133,0,2.116-0.433,2.949-1.3c0.834-0.833,1.25-1.85,1.25-3.05V70  c0-0.9-0.216-1.684-0.649-2.35l-0.8,0.95c-0.101,0.1-0.217,0.15-0.351,0.15c-0.133,0-0.233-0.034-0.3-0.1  c-0.1-0.067-0.15-0.184-0.15-0.35C53.566,68.167,53.6,68.05,53.7,67.95z M52.55,93.5h10.9l-0.05-5.75H52.55V93.5z M51.05,83.4h-6.6  v10.1h6.6V83.4z M84,82.9c-0.233-0.267-0.533-0.4-0.9-0.4c-0.399,0-0.732,0.133-1,0.4c-0.267,0.267-0.399,0.566-0.399,0.9  s0.133,0.667,0.399,1c0.268,0.233,0.601,0.35,1,0.35c0.367,0,0.667-0.117,0.9-0.35c0.3-0.3,0.45-0.633,0.45-1  C84.45,83.466,84.3,83.167,84,82.9z M84.7,82.15c0.5,0.5,0.75,1.05,0.75,1.65c0,0.633-0.25,1.2-0.75,1.7  c-0.434,0.433-0.967,0.65-1.601,0.65c-0.666,0-1.216-0.217-1.649-0.65c-0.5-0.5-0.75-1.067-0.75-1.7c0-0.6,0.25-1.15,0.75-1.65  c0.434-0.434,0.983-0.65,1.649-0.65C83.733,81.5,84.267,81.716,84.7,82.15z M73.15,75.85l0.1-0.4c0-0.2-0.066-0.333-0.2-0.4  c-0.1-0.133-0.233-0.2-0.399-0.2c-0.167,0-0.301,0.067-0.4,0.2c-0.133,0.067-0.2,0.2-0.2,0.4l0.2,0.4c0.1,0.067,0.233,0.1,0.4,0.1  c0.199,0,0.333-0.033,0.399-0.1H73.15z M85.45,94.25c0,0.5-0.25,0.75-0.75,0.75h-1.5c-0.2,0-0.367-0.067-0.5-0.2  c-0.167-0.167-0.25-0.35-0.25-0.55c0-0.5,0.25-0.75,0.75-0.75h1.5C85.2,93.5,85.45,93.75,85.45,94.25z M36.25,24.65  c-0.5,0-0.75-0.25-0.75-0.75s0.25-0.75,0.75-0.75h0.25c0.467-0.133,0.767,0.05,0.9,0.55c0.1,0.467-0.084,0.767-0.551,0.9  L36.25,24.65z M22.35,12.45c-0.267,0.267-0.399,0.583-0.399,0.95c0,0.333,0.133,0.633,0.399,0.9c0.268,0.267,0.584,0.4,0.95,0.4  c0.4,0,0.733-0.133,1-0.4s0.4-0.566,0.4-0.9c0-0.367-0.134-0.684-0.4-0.95s-0.6-0.4-1-0.4C22.934,12.05,22.617,12.183,22.35,12.45z   M23.3,11.05c0.667,0,1.217,0.217,1.65,0.65c0.5,0.5,0.75,1.067,0.75,1.7c0,0.6-0.25,1.15-0.75,1.65  c-0.434,0.434-0.983,0.65-1.65,0.65c-0.633,0-1.166-0.216-1.6-0.65c-0.5-0.5-0.75-1.05-0.75-1.65c0-0.633,0.25-1.2,0.75-1.7  C22.134,11.267,22.667,11.05,23.3,11.05z M23.2,24.8c-0.566,0.033-1.083,0.267-1.55,0.7c-0.467,0.5-0.7,1.133-0.7,1.9v4.3  c0,0.8,0.233,1.434,0.7,1.9c0.433,0.434,0.883,0.667,1.35,0.7c-0.2-1.333-0.3-2.733-0.3-4.2c0-1.9,0.167-3.633,0.5-5.2V24.8z   M16.35,30.6c-0.133,0.134-0.25,0.2-0.35,0.2h-1.35v1.3c0,0.134-0.051,0.25-0.15,0.35c-0.066,0.1-0.184,0.15-0.35,0.15  c-0.167,0-0.267-0.05-0.301-0.15c-0.133-0.133-0.199-0.25-0.199-0.35v-1.3H12.4c-0.101,0-0.217-0.066-0.351-0.2  c-0.1-0.033-0.149-0.133-0.149-0.3c0-0.133,0.05-0.25,0.149-0.35c0.101-0.1,0.217-0.15,0.351-0.15h1.25v-1.35  c0-0.1,0.066-0.216,0.199-0.35l0.301-0.15c0.033,0,0.149,0.05,0.35,0.15c0.1,0.1,0.15,0.217,0.15,0.35v1.35H16  c0.134,0,0.25,0.05,0.35,0.15c0.101,0.067,0.15,0.184,0.15,0.35S16.45,30.566,16.35,30.6z M13.1,45.5  c0.334-0.3,0.717-0.45,1.15-0.45s0.8,0.15,1.1,0.45c0.334,0.267,0.5,0.633,0.5,1.1c0,0.4-0.149,0.767-0.449,1.1l-0.051,0.05  c-0.267,0.233-0.633,0.35-1.1,0.35c-0.4,0-0.767-0.116-1.1-0.35L13.1,47.7c-0.3-0.433-0.449-0.8-0.449-1.1  C12.65,46.167,12.8,45.8,13.1,45.5z M13.65,46.6L13.85,47c0.101,0.066,0.233,0.1,0.4,0.1c0.2,0,0.333-0.033,0.4-0.1h0.1l0.1-0.4  c0-0.2-0.066-0.333-0.199-0.4c-0.101-0.133-0.233-0.2-0.4-0.2s-0.3,0.066-0.4,0.2C13.717,46.267,13.65,46.4,13.65,46.6z M23.3,54.35  c0.667,0,1.217,0.2,1.65,0.6c0.5,0.5,0.75,1.067,0.75,1.7c0,0.6-0.25,1.15-0.75,1.65c-0.434,0.434-0.983,0.65-1.65,0.65  c-0.633,0-1.166-0.216-1.6-0.65c-0.5-0.5-0.75-1.05-0.75-1.65c0-0.633,0.25-1.2,0.75-1.7C22.134,54.55,22.667,54.35,23.3,54.35z   M23.3,55.3c-0.366,0-0.683,0.133-0.95,0.4c-0.267,0.267-0.399,0.583-0.399,0.95c0,0.333,0.133,0.633,0.399,0.9  c0.268,0.267,0.584,0.4,0.95,0.4c0.4,0,0.733-0.133,1-0.4s0.4-0.566,0.4-0.9c0-0.367-0.134-0.684-0.4-0.95S23.7,55.3,23.3,55.3z   M10.3,64.85c0.134-0.133,0.25-0.2,0.351-0.2c0.133,0,0.233,0.066,0.3,0.2c0.133,0.067,0.2,0.167,0.2,0.3v1.35h1.3  c0.133,0,0.233,0.05,0.3,0.15c0.1,0.1,0.15,0.217,0.15,0.35s-0.051,0.25-0.15,0.35c-0.167,0.1-0.267,0.15-0.3,0.15h-1.3v1.35  c0,0.134-0.067,0.233-0.2,0.3c-0.066,0.133-0.167,0.2-0.3,0.2c-0.101,0-0.217-0.066-0.351-0.2c-0.1-0.033-0.149-0.133-0.149-0.3  V67.5H8.8l-0.35-0.15L8.3,67c0-0.034,0.05-0.15,0.15-0.35c0.066-0.1,0.184-0.15,0.35-0.15h1.351v-1.35  C10.15,64.983,10.2,64.883,10.3,64.85z M24.45,74.7c0,1.567,0.517,2.934,1.55,4.1c1.167,1.267,2.634,1.9,4.4,1.9l0.05-0.05l0.1-6.35  l-5.85-1.8C24.533,73.2,24.45,73.933,24.45,74.7z M19.25,83.8c0.267,0.267,0.4,0.633,0.4,1.1c0,0.433-0.134,0.8-0.4,1.1v0.05  c-0.333,0.233-0.717,0.35-1.15,0.35c-0.399,0-0.767-0.117-1.1-0.35V86c-0.333-0.333-0.5-0.7-0.5-1.1c0-0.5,0.167-0.867,0.5-1.1  c0.3-0.333,0.667-0.5,1.1-0.5C18.533,83.3,18.917,83.466,19.25,83.8z M18.5,84.5c-0.1-0.133-0.233-0.2-0.4-0.2  c-0.166,0-0.316,0.067-0.449,0.2c-0.101,0.1-0.15,0.233-0.15,0.4l0.15,0.4h0.1c0.066,0.067,0.184,0.1,0.35,0.1  c0.2,0,0.334-0.033,0.4-0.1h0.1l0.051-0.4C18.65,84.7,18.6,84.566,18.5,84.5z M13.15,94.25c0-0.5,0.25-0.75,0.75-0.75h5.449  c0.5,0,0.75,0.25,0.75,0.75S19.85,95,19.35,95H13.9c-0.2,0-0.367-0.067-0.5-0.2C13.233,94.633,13.15,94.45,13.15,94.25z M32.1,93.5  H42.95v-5.75H32.1V93.5z"></path></svg></g></svg>