<?xml version="1.0" encoding="UTF-8" standalone="no"?><!DOCTYPE svg PUBLIC "-//W3C//DTD SVG 1.1//EN" "http://www.w3.org/Graphics/SVG/1.1/DTD/svg11.dtd"><svg width="28" height="28" viewBox="0 0 35 49" version="1.1" xmlns="http://www.w3.org/2000/svg" xmlns:xlink="http://www.w3.org/1999/xlink" xml:space="preserve" style="fill-rule:evenodd;clip-rule:evenodd;stroke-linejoin:round;stroke-miterlimit:1.41421;"><g><path d="M0,48.579l34.224,0l-0.138,-0.69c-0.207,-1.104 -0.483,-2.208 -0.966,-3.174l0,-12.006c0,-1.035 -0.828,-1.863 -1.863,-1.863l-0.414,0c-0.276,-7.245 -6.348,-13.041 -13.8,-13.041c-7.452,0 -13.524,5.796 -13.731,13.041l-0.414,0c-1.035,0 -1.863,0.828 -1.863,1.863l0,12.006c-0.483,1.035 -0.759,2.07 -0.966,3.174l-0.069,0.69Zm3.381,-16.422c0.207,2.484 1.035,4.83 2.484,6.762c-1.38,1.035 -2.553,2.208 -3.519,3.588l0,-9.798c0,-0.345 0.276,-0.621 0.621,-0.621l0.414,0l0,0.069Zm26.151,-0.966c0,2.829 -0.966,5.382 -2.622,7.452c-2.277,2.829 -5.865,4.692 -9.798,4.692c-4.002,0 -7.521,-1.794 -9.798,-4.692c-1.656,-2.07 -2.622,-4.623 -2.622,-7.452c0,-6.693 5.589,-12.144 12.42,-12.144c6.831,0 12.42,5.451 12.42,12.144Zm2.277,11.316c-0.966,-1.311 -2.139,-2.553 -3.519,-3.588c1.38,-1.932 2.277,-4.278 2.484,-6.762l0.483,0c0.345,0 0.621,0.276 0.621,0.621l0,9.729l-0.069,0Zm-30.36,4.83c0.69,-2.967 2.553,-5.589 5.175,-7.452c2.484,2.898 6.279,4.692 10.419,4.692c4.209,0 7.935,-1.863 10.419,-4.692c2.622,1.932 4.485,4.485 5.175,7.452l-31.188,0Zm24.564,-9.177c1.587,-2.001 2.553,-4.554 2.553,-7.314c0,-2.76 -0.759,-4.278 -1.449,-5.037c0,0 -0.069,-0.069 -0.207,-0.207l-0.069,-0.069c-0.897,-0.828 -3.519,-2.76 -9.798,-2.76c0,0 -0.069,0 -0.276,0c-1.863,0 -8.004,0.207 -9.798,3.105c-0.621,0.828 -1.38,2.346 -1.38,5.037c0,2.829 0.966,5.382 2.622,7.383c2.139,2.553 5.313,4.209 8.832,4.209c3.657,-0.069 6.831,-1.725 8.97,-4.347Zm1.725,-7.314c0,2.622 -0.897,4.968 -2.415,6.831c-1.932,2.415 -4.899,3.933 -8.211,3.933c-3.312,0 -6.279,-1.518 -8.211,-3.933c-1.518,-1.863 -2.415,-4.209 -2.415,-6.831c0,-2.622 0.759,-3.933 1.242,-4.554l0,-0.069c1.656,-2.553 7.935,-2.691 9.108,-2.691c0.138,0 0.276,0 0.276,0c6.072,0 8.556,1.932 9.177,2.553l0.207,0.207c0.483,0.621 1.242,1.932 1.242,4.554Z" style="fill-rule:nonzero;"/><path d="M8.259,17.233c0.42,0.775 3.516,5.223 6.893,5.194c6.97,0.559 10.439,-5.255 11.187,-7.878c-1.243,1.1 -2.454,1.915 -3.633,2.444c1.945,-2.284 2.868,-4.857 2.77,-7.721c-0.669,2.131 -1.893,3.699 -3.671,4.705c2.376,-2.637 3.024,-3.671 3.168,-5.909c0.145,-2.238 -0.214,-5.682 -3.647,-8.068c1.457,1.91 1.658,3.712 -0.34,5.577c0.757,-1.543 0.444,-2.571 -0.936,-3.345c0.779,1.339 -0.235,4.7 -3.003,6.837c0.589,-1.26 -0.842,-2.791 -1.895,-2.856c1.271,1.284 1.114,1.899 0.741,2.317c-0.374,0.419 -0.964,0.642 -1.639,1.022c-0.093,-0.438 -0.588,-0.906 -1.484,-1.4c0.259,0.754 0.224,1.458 -0.102,2.111c-0.5,-0.387 -1.056,-0.727 -1.669,-1.021c0.423,0.964 0.218,1.27 -0.025,1.481c-0.244,0.21 -0.525,0.325 -0.843,0.612c-0.318,0.287 -0.673,0.748 -0.966,1.687c-0.295,0.94 -0.528,2.358 0.17,3.837c-0.667,-0.318 -0.906,-1.977 -0.747,-2.888c-0.864,1.424 -0.881,2.242 -0.329,3.262Z" style="fill-rule:nonzero;"/><path d="M7.885,25.208c-0.911,1.095 -1.465,4.121 -1.451,5.951c0.046,5.94 4.962,10.725 10.972,10.678c6.009,-0.046 10.851,-4.905 10.806,-10.845c-0.014,-1.83 -0.5,-3.627 -1.413,-5.22l-4.177,-1.998l-5.51,-0.662l-5.935,0.662l-3.292,1.434Z"/></g></svg>